<svg width="512" height="512" viewBox="0 0 512 512" fill="none" xmlns="http://www.w3.org/2000/svg">
<path d="M170.432 437.344C167.641 434.486 166.078 430.65 166.078 426.656C166.078 422.661 167.641 418.825 170.432 415.968L326.368 256L170.432 96.0639C167.641 93.2064 166.078 89.3704 166.078 85.3759C166.078 81.3815 167.641 77.5454 170.432 74.6879C171.789 73.2945 173.411 72.187 175.202 71.4308C176.994 70.6746 178.919 70.2851 180.864 70.2851C182.809 70.2851 184.734 70.6746 186.526 71.4308C188.317 72.187 189.939 73.2945 191.296 74.6879L357.12 244.832C360.032 247.82 361.662 251.827 361.662 256C361.662 260.173 360.032 264.18 357.12 267.168L191.296 437.312C189.939 438.705 188.317 439.813 186.526 440.569C184.734 441.325 182.809 441.715 180.864 441.715C178.919 441.715 176.994 441.325 175.202 440.569C173.411 439.813 171.789 438.705 170.432 437.312V437.344Z" fill="#333333"/>
</svg>
