<svg width="512" height="512" viewBox="0 0 512 512" fill="none" xmlns="http://www.w3.org/2000/svg">
<path d="M341.568 437.344C344.359 434.486 345.922 430.65 345.922 426.656C345.922 422.661 344.359 418.825 341.568 415.968L185.632 256L341.568 96.0639C344.359 93.2064 345.922 89.3704 345.922 85.3759C345.922 81.3815 344.359 77.5454 341.568 74.6879C340.211 73.2945 338.589 72.187 336.798 71.4308C335.006 70.6746 333.081 70.2851 331.136 70.2851C329.191 70.2851 327.266 70.6746 325.474 71.4308C323.683 72.187 322.061 73.2945 320.704 74.6879L154.88 244.832C151.968 247.82 150.338 251.827 150.338 256C150.338 260.173 151.968 264.18 154.88 267.168L320.704 437.312C322.061 438.705 323.683 439.813 325.474 440.569C327.266 441.325 329.191 441.715 331.136 441.715C333.081 441.715 335.006 441.325 336.798 440.569C338.589 439.813 340.211 438.705 341.568 437.312V437.344Z" fill="#333333"/>
</svg>
